<svg width="74" height="74" viewBox="0 0 74 74" xmlns="http://www.w3.org/2000/svg">
    <path
        d="M37.0002 0.200111C36.7882 0.197113 36.5777 0.236283 36.3809 0.315345C36.1842 0.394407 36.0051 0.511784 35.8541 0.660655C35.7031 0.809526 35.5832 0.986922 35.5014 1.18253C35.4195 1.37815 35.3774 1.58807 35.3774 1.80011C35.3774 2.01215 35.4195 2.22208 35.5014 2.41769C35.5832 2.6133 35.7031 2.7907 35.8541 2.93957C36.0051 3.08844 36.1842 3.20582 36.3809 3.28488C36.5777 3.36394 36.7882 3.40311 37.0002 3.40011C55.5754 3.40011 70.6002 18.4249 70.6002 37.0001C70.6002 55.5754 55.5754 70.6001 37.0002 70.6001C18.4249 70.6001 3.4002 55.5754 3.4002 37.0001C3.4002 26.2918 8.40933 16.7838 16.2002 10.6314V21.0001C16.1972 21.2121 16.2364 21.4226 16.3154 21.6194C16.3945 21.8161 16.5119 21.9952 16.6607 22.1462C16.8096 22.2972 16.987 22.4171 17.1826 22.4989C17.3782 22.5808 17.5882 22.6229 17.8002 22.6229C18.0122 22.6229 18.2222 22.5808 18.4178 22.4989C18.6134 22.4171 18.7908 22.2972 18.9397 22.1462C19.0885 21.9952 19.2059 21.8161 19.285 21.6194C19.364 21.4226 19.4032 21.2121 19.4002 21.0001V7.48136V5.00011H3.4002C3.18818 4.99711 2.97768 5.03628 2.78093 5.11534C2.58418 5.19441 2.4051 5.31178 2.25411 5.46065C2.10312 5.60953 1.98322 5.78692 1.90139 5.98253C1.81955 6.17815 1.77741 6.38807 1.77741 6.60011C1.77741 6.81215 1.81955 7.02208 1.90139 7.21769C1.98322 7.4133 2.10312 7.5907 2.25411 7.73957C2.4051 7.88844 2.58418 8.00582 2.78093 8.08488C2.97768 8.16394 3.18818 8.20311 3.4002 8.20011H14.1189C5.64353 14.9438 0.200195 25.3396 0.200195 37.0001C0.200195 57.3049 16.6954 73.8001 37.0002 73.8001C57.3049 73.8001 73.8002 57.3049 73.8002 37.0001C73.8002 16.6954 57.3049 0.200111 37.0002 0.200111Z"
        fill="#253064"
    />
</svg>
